HIERARCHY
ROOT Hips
{
	OFFSET 0.000000 0.000000 0.000000
	CHANNELS 6 Xposition Yposition Zposition Xrotation Yrotation Zrotation
	JOINT LeftUpLeg_virtual
	{
		OFFSET 0.000000 0.000000 0.000000
		CHANNELS 3 Xrotation Yrotation Zrotation
		JOINT LeftUpLeg
		{
			OFFSET 10.205400 -3.823500 0.155100
			CHANNELS 3 Xrotation Yrotation Zrotation
			JOINT LeftLeg
			{
				OFFSET 0.708757 -12.982077 0.567790
				CHANNELS 3 Xrotation Yrotation Zrotation
				JOINT LeftFoot
				{
					OFFSET -0.708756 -10.717838 -2.184338
					CHANNELS 3 Xrotation Yrotation Zrotation
					JOINT LeftToeBase
					{
						OFFSET 0.108149 -7.191104 7.560241
						CHANNELS 3 Xrotation Yrotation Zrotation
						JOINT LeftToe_End
						{
							OFFSET 0.070230 0.081724 4.490308
							CHANNELS 3 Xrotation Yrotation Zrotation
							End Site
							{
								OFFSET 0 0 0
							}
						}
					}
				}
			}
		}
	}
	JOINT RightUpLeg_virtual
	{
		OFFSET 0.000000 0.000000 0.000000
		CHANNELS 3 Xrotation Yrotation Zrotation
		JOINT RightUpLeg
		{
			OFFSET -10.205400 -3.823500 0.005500
			CHANNELS 3 Xrotation Yrotation Zrotation
			JOINT RightLeg
			{
				OFFSET -0.708756 -12.982134 0.610632
				CHANNELS 3 Xrotation Yrotation Zrotation
				JOINT RightFoot
				{
					OFFSET 0.708754 -10.717769 -1.945823
					CHANNELS 3 Xrotation Yrotation Zrotation
					JOINT RightToeBase
					{
						OFFSET -0.108140 -7.191069 7.372968
						CHANNELS 3 Xrotation Yrotation Zrotation
						JOINT RightToe_End
						{
							OFFSET -0.070227 0.081735 4.479403
							CHANNELS 3 Xrotation Yrotation Zrotation
							End Site
							{
								OFFSET 0 0 0
							}
						}
					}
				}
			}
		}
	}
	JOINT Spine_virtual
	{
		OFFSET 0.000000 0.000000 0.000000
		CHANNELS 3 Xrotation Yrotation Zrotation
		JOINT Spine
		{
			OFFSET 0.000000 6.876099 0.125700
			CHANNELS 3 Xrotation Yrotation Zrotation
			JOINT Spine1
			{
				OFFSET 0.000000 5.730043 0.104720
				CHANNELS 3 Xrotation Yrotation Zrotation
				JOINT Spine1_split
				{
					OFFSET 0.000000 5.730043 0.104720
					CHANNELS 3 Xrotation Yrotation Zrotation
					JOINT Spine2
					{
						OFFSET 0.000000 5.730043 0.104720
						CHANNELS 3 Xrotation Yrotation Zrotation
						JOINT Neck_virtual
						{
							OFFSET 0.000000 0.000000 0.000000
							CHANNELS 3 Xrotation Yrotation Zrotation
							JOINT Neck
							{
								OFFSET 0.000000 10.314075 0.188496
								CHANNELS 3 Xrotation Yrotation Zrotation
								JOINT Head
								{
									OFFSET 0.000000 7.643700 -2.377400
									CHANNELS 3 Xrotation Yrotation Zrotation
									JOINT HeadTop_End
									{
										OFFSET 0.000000 43.788605 -13.619600
										CHANNELS 3 Xrotation Yrotation Zrotation
										End Site
										{
											OFFSET 0 0 0
										}
									}
								}
							}
						}
						JOINT LeftShoulder_virtual
						{
							OFFSET 0.000000 0.000000 0.000000
							CHANNELS 3 Xrotation Yrotation Zrotation
							JOINT LeftShoulder
							{
								OFFSET 2.196100 4.412489 0.087492
								CHANNELS 3 Xrotation Yrotation Zrotation
								JOINT LeftShoulder_split
								{
									OFFSET 2.196100 4.412489 0.087492
									CHANNELS 3 Xrotation Yrotation Zrotation
									JOINT LeftArm
									{
										OFFSET 8.771219 -2.981674 -0.026999
										CHANNELS 3 Xrotation Yrotation Zrotation
										JOINT LeftForeArm
										{
											OFFSET 8.512804 0.000000 -0.000000
											CHANNELS 3 Xrotation Yrotation Zrotation
											JOINT LeftHand
											{
												OFFSET 18.484802 0.000000 -0.000000
												CHANNELS 3 Xrotation Yrotation Zrotation
												End Site
												{
													OFFSET 0 0 0
												}
											}
										}
									}
								}
							}
						}
						JOINT RightShoulder_virtual
						{
							OFFSET 0.000000 0.000000 0.000000
							CHANNELS 3 Xrotation Yrotation Zrotation
							JOINT RightShoulder
							{
								OFFSET -2.196100 4.412496 0.070690
								CHANNELS 3 Xrotation Yrotation Zrotation
								JOINT RightShoulder_split
								{
									OFFSET -2.196100 4.412496 0.070690
									CHANNELS 3 Xrotation Yrotation Zrotation
									JOINT RightArm
									{
										OFFSET -8.771282 -2.981682 -0.094208
										CHANNELS 3 Xrotation Yrotation Zrotation
										JOINT RightForeArm
										{
											OFFSET -8.494598 0.000000 0.000000
											CHANNELS 3 Xrotation Yrotation Zrotation
											JOINT RightHand
											{
												OFFSET -18.483803 0.000000 0.000001
												CHANNELS 3 Xrotation Yrotation Zrotation
												End Site
												{
													OFFSET 0 0 0
												}
											}
										}
									}
								}
							}
						}
					}
				}
			}
		}
	}
}
MOTION
Frames: 8
Frame Time: 0.03333333
0.141545 45.251217 6.194301 0.000000 0.000000 0.000000 -85.577435 -7.925452 -1.911536 -6.322397 18.837371 16.823417 8.283377 3.650552 3.377445 12.217083 30.287395 -25.312763 -6.947737 0.078069 1.915928 0.000000 0.000000 0.000000 -87.225457 -5.585977 -0.857057 -6.993373 -16.827459 -15.070648 14.108986 -2.980648 -9.354682 19.136008 -34.701357 33.805502 -13.582565 0.903429 -1.418121 0.000000 0.000000 0.000000 -85.005290 -7.653408 -2.775121 -0.640759 -2.487065 0.237718 -0.417439 -2.905324 0.741024 2.059872 3.168083 -0.556501 0.000000 0.000000 0.000000 -1.957192 -3.062443 0.462706 -13.471036 1.509909 0.317639 10.352304 -2.256975 3.888965 0.000000 0.000000 0.000000 -1.126335 -3.104183 1.127542 0.383097 3.844347 -2.432747 -2.540695 2.524924 -5.802985 41.956278 -32.925569 -47.402773 169.402680 -87.473768 169.883730 0.000000 0.000000 0.000000 -1.164495 -2.889862 0.656955 1.088265 -4.117105 12.949441 0.680891 3.038020 -0.259297 31.922033 34.176962 39.504025 173.570161 76.024568 -173.337101 0.000000 0.000000 0.000000 
0.185879 45.277817 6.320684 0.000000 0.000000 0.000000 -85.549410 -7.935436 -1.972300 -6.421221 18.549984 16.829436 8.339386 3.645339 3.401754 12.417074 30.290171 -25.354263 -6.779215 0.100622 1.874421 0.000000 0.000000 0.000000 -87.212869 -5.523743 -0.826726 -6.751788 -16.733603 -14.778624 14.014863 -3.012304 -9.427579 18.922973 -34.840498 33.840579 -13.660400 0.969339 -1.506224 0.000000 0.000000 0.000000 -84.855033 -7.398603 -2.621542 -0.566637 -2.478168 0.411282 -0.262570 -2.859458 0.783574 1.888341 3.083827 -0.761674 0.000000 0.000000 0.000000 -1.916373 -3.038181 0.494616 -13.732813 1.753551 0.236898 10.499259 -1.936057 3.377145 0.000000 0.000000 0.000000 -0.886176 -3.065762 1.254290 0.217056 3.751970 -3.062506 -2.309737 3.214878 -5.008034 41.831398 -32.888290 -47.110905 167.914928 -87.978608 168.161826 0.000000 0.000000 0.000000 -0.874996 -2.805874 0.621487 1.137051 -3.860227 12.756285 0.892843 2.750589 -0.048242 29.882843 34.473344 39.640745 173.829967 74.968914 -173.646085 0.000000 0.000000 0.000000 
0.217361 45.336998 6.455758 0.000000 0.000000 0.000000 -85.571069 -7.894350 -1.937033 -6.568514 18.291472 16.849949 8.371284 3.708941 3.412402 12.489197 30.291216 -25.381888 -6.543325 0.140417 1.790585 0.000000 0.000000 0.000000 -87.186443 -5.365923 -0.717854 -6.484005 -16.397389 -14.358360 13.980656 -3.044579 -9.559460 18.636899 -35.069531 33.670473 -13.661273 1.086637 -1.613717 0.000000 0.000000 0.000000 -84.796088 -7.216927 -2.532010 -0.347453 -2.486577 0.656647 0.153017 -2.808888 0.811172 1.644267 2.640440 -0.902886 0.000000 0.000000 0.000000 -1.578460 -3.016261 0.506209 -13.804191 1.981389 -0.134358 10.500504 -1.203961 2.297551 0.000000 0.000000 0.000000 -0.313816 -3.070039 1.317872 0.057843 3.733656 -4.041990 -2.157850 3.816055 -4.126208 40.251883 -32.385608 -47.547587 170.014091 -89.214661 170.129398 0.000000 0.000000 0.000000 -0.407245 -2.762672 0.549200 1.089438 -3.212685 12.434489 1.020163 2.518481 0.705549 26.018462 35.199568 39.918105 175.044047 73.990510 -175.111092 0.000000 0.000000 0.000000 
0.232464 45.407021 6.573359 0.000000 0.000000 0.000000 -85.613512 -7.818640 -1.798727 -6.702769 18.152771 16.863836 8.397067 3.787945 3.422756 12.407625 30.278755 -25.413621 -6.462380 0.182587 1.733010 0.000000 0.000000 0.000000 -87.166164 -5.213548 -0.550500 -6.369818 -15.929282 -13.960780 14.057888 -3.030276 -9.704564 18.400709 -35.296710 33.390018 -13.559805 1.225697 -1.693701 0.000000 0.000000 0.000000 -84.878187 -7.169488 -2.510855 -0.009754 -2.460458 0.880218 0.824136 -2.649950 0.804544 1.355067 1.924594 -0.830205 0.000000 0.000000 0.000000 -0.944650 -2.886871 0.460693 -13.602992 2.064018 -0.681844 10.333612 -0.202716 0.819817 0.000000 0.000000 0.000000 0.559942 -2.990720 1.312084 -0.066934 3.778315 -5.149882 -1.947307 3.945403 -3.172048 37.711626 -31.658227 -48.270316 -33.328939 -89.414498 -33.259073 0.000000 0.000000 0.000000 0.213977 -2.654421 0.432567 0.935649 -2.226104 12.042997 0.983436 2.494612 1.597878 20.740590 36.158376 40.485004 176.574406 73.168907 -177.004844 0.000000 0.000000 0.000000 
0.237547 45.472366 6.675111 0.000000 0.000000 0.000000 -85.671295 -7.733201 -1.560827 -6.809215 18.161724 16.872756 8.368692 3.857715 3.447560 12.145722 30.259630 -25.399255 -6.544418 0.208218 1.745054 0.000000 0.000000 0.000000 -87.189994 -5.125916 -0.352424 -6.499081 -15.502960 -13.673806 14.244424 -2.965075 -9.830959 18.300560 -35.454272 33.073757 -13.316757 1.350059 -1.704326 0.000000 0.000000 0.000000 -85.109300 -7.271372 -2.533055 0.426928 -2.323122 0.981496 1.775704 -2.268449 0.762673 1.117515 1.246187 -0.553935 0.000000 0.000000 0.000000 -0.029488 -2.533693 0.354222 -13.066582 1.950640 -1.215367 10.041274 0.747535 -0.831731 0.000000 0.000000 0.000000 1.672177 -2.690057 1.230710 -0.137215 3.800283 -6.149475 -1.455932 3.533020 -2.411717 34.935134 -31.002522 -48.761793 -30.131479 -88.427536 -30.064003 0.000000 0.000000 0.000000 1.002191 -2.369339 0.262725 0.701021 -1.075336 11.695470 0.641281 2.458681 2.202642 14.438398 36.919112 41.539493 178.064889 72.123041 -178.895031 0.000000 0.000000 0.000000 
0.230656 45.524139 6.770107 0.000000 0.000000 0.000000 -85.722433 -7.677691 -1.260864 -6.886144 18.267450 16.886668 8.253866 3.895720 3.495926 11.614630 30.294297 -25.241347 -6.611758 0.207352 1.814506 0.000000 0.000000 0.000000 -87.181429 -5.097223 -0.106335 -6.794254 -15.246615 -13.504776 14.475971 -2.867555 -9.918416 18.250207 -35.530606 32.727627 -12.941718 1.439876 -1.638838 0.000000 0.000000 0.000000 -85.388061 -7.455323 -2.572545 0.921816 -1.993651 0.922477 3.016082 -1.596463 0.691857 0.853932 0.741692 -0.278438 0.000000 0.000000 0.000000 1.168786 -1.890813 0.202222 -12.116344 1.563872 -1.660046 9.702438 1.358813 -2.442859 0.000000 0.000000 0.000000 2.983718 -2.090593 1.097337 -0.148174 3.749497 -6.807807 -0.742777 2.766451 -1.865445 32.436162 -30.868138 -48.526179 -35.825913 -88.104625 -35.743022 0.000000 0.000000 0.000000 2.009127 -1.806183 0.062343 0.417953 0.111759 11.458698 0.251423 2.411994 2.548859 7.535025 37.094696 43.250855 179.030719 70.408001 179.773147 0.000000 0.000000 0.000000 
0.216078 45.569626 6.828935 0.000000 0.000000 0.000000 -85.738408 -7.626241 -0.936023 -6.906631 18.385568 16.913558 7.999563 3.871244 3.582856 10.797312 30.417401 -24.915939 -6.564467 0.179181 1.932356 0.000000 0.000000 0.000000 -87.150673 -5.091921 0.173743 -7.076498 -15.206245 -13.414361 14.718858 -2.778986 -9.959247 18.146368 -35.548867 32.382002 -12.500199 1.480323 -1.514788 0.000000 0.000000 0.000000 -85.659260 -7.633279 -2.605287 1.458264 -1.470700 0.699539 4.552689 -0.653538 0.598636 0.757543 0.451803 0.021571 0.000000 0.000000 0.000000 2.649633 -0.971972 0.020906 -10.805648 0.976905 -1.964626 9.448063 1.482314 -3.870451 0.000000 0.000000 0.000000 4.466983 -1.213393 0.920400 -0.098483 3.562517 -7.013530 -0.069838 1.924426 -1.859837 30.552635 -31.555283 -47.226609 -44.703482 -88.296123 -44.580713 0.000000 0.000000 0.000000 3.297473 -0.962426 -0.130781 0.132250 1.201674 11.388730 -0.024689 2.479735 2.716670 0.311527 36.327287 45.590584 179.401407 67.779997 179.157023 0.000000 0.000000 0.000000 
0.198939 45.623009 6.870574 0.000000 0.000000 0.000000 -85.734071 -7.560311 -0.645985 -6.833083 18.398993 16.984872 7.619603 3.748953 3.696685 9.781937 30.624417 -24.515494 -6.447510 0.133468 2.086372 0.000000 0.000000 0.000000 -87.120081 -5.062678 0.431044 -7.206556 -15.376419 -13.376087 14.942584 -2.706992 -9.963200 17.890115 -35.513039 32.068397 -11.994541 1.475356 -1.375030 0.000000 0.000000 0.000000 -85.821805 -7.793325 -2.658810 1.993594 -0.786323 0.375822 6.396122 0.455980 0.491825 0.810755 0.333421 0.232316 0.000000 0.000000 0.000000 4.423411 0.143005 -0.158357 -9.233343 0.304148 -2.163547 9.420534 1.187307 -5.060904 0.000000 0.000000 0.000000 6.158413 -0.139491 0.720808 0.013927 3.287865 -6.781941 0.551332 1.235243 -2.372025 29.296799 -33.069372 -44.875610 -48.932476 -88.581420 -48.733591 0.000000 0.000000 0.000000 4.910638 0.090529 -0.288862 -0.095429 2.124585 11.533264 -0.127208 2.580337 2.819274 -6.663052 34.514489 48.303299 179.349812 64.349951 179.124170 0.000000 0.000000 0.000000 
